<svg width="23" height="23" viewBox="0 0 23 23" fill="none" xmlns="http://www.w3.org/2000/svg">
<path fill-rule="evenodd" clip-rule="evenodd" d="M13.5205 2.33931C13.8393 2.42398 14.1064 2.64146 14.2539 2.93649C14.81 4.04868 15.225 4.7237 15.6426 5.271C16.0652 5.82499 16.5123 6.27851 17.1924 6.9586C18.764 8.53024 19.5502 10.5924 19.5502 12.6508C19.5502 14.7092 18.764 16.7714 17.1924 18.343C14.0487 21.4867 8.95171 21.4867 5.80798 18.343C4.23635 16.7714 3.4502 14.7092 3.4502 12.6508C3.45019 10.5924 4.23635 8.53024 5.80799 6.9586C6.13688 6.6297 6.63152 6.53131 7.06124 6.70931C7.49097 6.88731 7.77116 7.30664 7.77116 7.77177C7.77116 9.05956 7.85158 10.0408 8.22823 10.8235C8.43534 11.2538 8.75842 11.6746 9.31525 12.0501C9.44823 10.8302 9.69184 9.34394 10.021 7.93322C10.2802 6.82253 10.6025 5.71367 10.9861 4.78899C11.178 4.32649 11.395 3.8861 11.6415 3.50587C11.8814 3.13577 12.1896 2.75915 12.5874 2.49393C12.8619 2.31096 13.2017 2.25465 13.5205 2.33931ZM13.9397 17.3903C12.5924 18.7376 10.408 18.7376 9.06068 17.3903C8.38702 16.7166 8.0502 15.8337 8.0502 14.9508C8.0502 14.9508 9.06068 15.5258 10.9252 15.5258C10.9252 14.3758 11.5002 10.9258 12.3627 10.3508C12.9377 11.5008 13.2661 11.8376 13.9397 12.5113C14.6134 13.1849 14.9502 14.0679 14.9502 14.9508C14.9502 15.8337 14.6134 16.7166 13.9397 17.3903Z" fill="#1AA053"/>
</svg>
