<svg width="21" height="21" viewBox="0 0 21 21" fill="none" xmlns="http://www.w3.org/2000/svg">
<path fill-rule="evenodd" clip-rule="evenodd" d="M2.09961 6.29922C2.09961 5.13942 3.03981 4.19922 4.19961 4.19922H8.39961L10.4996 6.29922H14.6996C15.8594 6.29922 16.7996 7.23942 16.7996 8.39922V9.44922H8.39961C6.65991 9.44922 5.24961 10.8595 5.24961 12.5992V14.1742C5.24961 15.0441 4.54446 15.7492 3.67461 15.7492C2.80476 15.7492 2.09961 15.044 2.09961 14.1742V6.29922Z" fill="#3A57E8"/>
<path d="M6.29961 12.5992C6.29961 11.4394 7.23981 10.4992 8.39961 10.4992H16.7996C17.9594 10.4992 18.8996 11.4394 18.8996 12.5992V14.6992C18.8996 15.859 17.9594 16.7992 16.7996 16.7992H2.09961H4.19961C5.35941 16.7992 6.29961 15.859 6.29961 14.6992V12.5992Z" fill="#3A57E8"/>
</svg>
