<svg width="23" height="23" viewBox="0 0 23 23" fill="none" xmlns="http://www.w3.org/2000/svg">
<path fill-rule="evenodd" clip-rule="evenodd" d="M12.9959 1.20172C13.4747 1.35263 13.8002 1.79658 13.8002 2.29852V8.04852L18.4002 8.04852C18.829 8.04852 19.2222 8.2871 19.4202 8.66744C19.6183 9.04778 19.5882 9.50671 19.3423 9.858L11.2923 21.358C11.0045 21.7692 10.4832 21.9462 10.0045 21.7953C9.52574 21.6444 9.2002 21.2005 9.2002 20.6985L9.2002 14.9485H4.6002C4.17139 14.9485 3.7782 14.7099 3.58017 14.3296C3.38215 13.9493 3.41218 13.4903 3.65808 13.139L11.7081 1.63904C11.9959 1.22783 12.5172 1.05082 12.9959 1.20172Z" fill="#3A57E8"/>
</svg>
