<svg width="22" height="22" viewBox="0 0 22 22" fill="none" xmlns="http://www.w3.org/2000/svg">
<path d="M9.95341 4.31867C10.2827 3.30523 11.7164 3.30523 12.0457 4.31868L13.2223 7.93965C13.3695 8.39288 13.7919 8.69973 14.2684 8.69973H18.0757C19.1413 8.69973 19.5844 10.0633 18.7223 10.6897L15.6421 12.9275C15.2566 13.2076 15.0953 13.7042 15.2425 14.1574L16.419 17.7784C16.7483 18.7918 15.5884 19.6345 14.7263 19.0082L11.6461 16.7703C11.2606 16.4902 10.7385 16.4902 10.353 16.7703L7.27282 19.0082C6.41073 19.6345 5.2508 18.7918 5.58009 17.7784L6.75662 14.1574C6.90388 13.7042 6.74256 13.2076 6.35702 12.9275L3.27683 10.6897C2.41475 10.0633 2.8578 8.69973 3.9234 8.69973H7.73072C8.20727 8.69973 8.62962 8.39288 8.77688 7.93965L9.95341 4.31867Z" fill="#C03221"/>
</svg>
